<svg width="34" height="35" viewBox="0 0 34 35" fill="none" xmlns="http://www.w3.org/2000/svg">
<path d="M26.4798 8.81184C24.8053 8.0435 23.0097 7.47743 21.1322 7.15322C21.098 7.14696 21.0639 7.1626 21.0462 7.19387C20.8153 7.60461 20.5595 8.14045 20.3804 8.56162C18.361 8.25931 16.3521 8.25931 14.3741 8.56162C14.195 8.13109 13.9299 7.60461 13.6979 7.19387C13.6803 7.16364 13.6461 7.148 13.6119 7.15322C11.7355 7.47639 9.93986 8.04247 8.26432 8.81184C8.24981 8.81809 8.23738 8.82853 8.22913 8.84207C4.82315 13.9305 3.89011 18.8939 4.34783 23.7958C4.3499 23.8197 4.36336 23.8427 4.382 23.8573C6.62917 25.5075 8.80593 26.5094 10.9423 27.1734C10.9765 27.1839 11.0127 27.1714 11.0344 27.1432C11.5398 26.4531 11.9903 25.7254 12.3765 24.9602C12.3993 24.9154 12.3776 24.8622 12.331 24.8445C11.6164 24.5735 10.9361 24.243 10.2816 23.8677C10.2298 23.8375 10.2257 23.7634 10.2733 23.728C10.411 23.6248 10.5488 23.5174 10.6803 23.409C10.7041 23.3892 10.7372 23.385 10.7652 23.3975C15.0648 25.3605 19.7197 25.3605 23.9686 23.3975C23.9966 23.384 24.0297 23.3881 24.0545 23.4079C24.1861 23.5163 24.3238 23.6248 24.4626 23.728C24.5102 23.7634 24.5071 23.8375 24.4553 23.8677C23.8008 24.2503 23.1205 24.5735 22.4049 24.8435C22.3583 24.8612 22.3376 24.9154 22.3604 24.9602C22.7549 25.7244 23.2054 26.452 23.7014 27.1422C23.7221 27.1714 23.7594 27.1839 23.7936 27.1734C25.9403 26.5094 28.117 25.5075 30.3642 23.8573C30.3839 23.8427 30.3963 23.8208 30.3984 23.7968C30.9462 18.1297 29.4809 13.207 26.514 8.84311C26.5067 8.82853 26.4943 8.81809 26.4798 8.81184ZM13.0186 20.811C11.7241 20.811 10.6575 19.6226 10.6575 18.1631C10.6575 16.7036 11.7034 15.5151 13.0186 15.5151C14.3441 15.5151 15.4004 16.714 15.3797 18.1631C15.3797 19.6226 14.3337 20.811 13.0186 20.811ZM21.7483 20.811C20.4539 20.811 19.3873 19.6226 19.3873 18.1631C19.3873 16.7036 20.4332 15.5151 21.7483 15.5151C23.0739 15.5151 24.1301 16.714 24.1094 18.1631C24.1094 19.6226 23.0739 20.811 21.7483 20.811Z" fill="#3BF93B"/>
</svg>
