<svg width="167" height="32" viewBox="0 0 167 32" fill="none" xmlns="http://www.w3.org/2000/svg">
<path d="M151.688 9.39296H153.054C153.271 9.39296 153.447 9.33007 153.581 9.20428C153.718 9.07849 153.786 8.90932 153.786 8.69677C153.786 8.48206 153.718 8.31181 153.581 8.18602C153.447 8.05806 153.271 7.99408 153.054 7.99408H151.688V9.39296ZM150.988 10.0273V5.36222H153.035C153.475 5.36222 153.815 5.47825 154.056 5.71031C154.299 5.94021 154.421 6.25794 154.421 6.66351C154.421 6.88906 154.365 7.09076 154.255 7.26861C154.146 7.44645 154.001 7.57766 153.819 7.66225C154.014 7.75117 154.173 7.88997 154.297 8.07866C154.423 8.26735 154.486 8.48423 154.486 8.72931C154.486 9.13271 154.364 9.45044 154.121 9.6825C153.88 9.9124 153.54 10.0273 153.1 10.0273H150.988ZM151.688 7.39548H152.986C153.203 7.39548 153.379 7.33259 153.516 7.2068C153.653 7.07884 153.721 6.90858 153.721 6.69604C153.721 6.4835 153.653 6.31433 153.516 6.18854C153.382 6.06058 153.205 5.9966 152.986 5.9966H151.688V7.39548ZM155.154 10.0273V5.36222H158.151V5.9966H155.854V7.36295H158.017V7.99408H155.854V9.39296H158.219V10.0273H155.154ZM159.951 10.0273V5.9966H158.484V5.36222H162.115V5.9966H160.651V10.0273H159.951ZM161.547 10.0273L163.278 5.36222H164.111L165.845 10.0273H165.11L164.726 8.96029H162.666L162.279 10.0273H161.547ZM162.891 8.32916H164.498L163.711 6.16251H163.678L162.891 8.32916Z" fill="white"/>
<path d="M44.4372 24.4814C42.7283 24.4814 41.3183 24.0675 40.2071 23.2399C39.1036 22.4046 38.4331 21.2513 38.1956 19.78H40.6669C41.1344 21.4276 42.3911 22.2514 44.4372 22.2514C45.6327 22.2514 46.5407 22.0215 47.1615 21.5617C47.7822 21.0942 48.0925 20.462 48.0925 19.6651C48.0925 19.144 47.9163 18.711 47.5638 18.3662C47.2189 18.0213 46.7668 17.7646 46.2074 17.596C45.6556 17.4198 45.0464 17.2627 44.3797 17.1247C43.713 16.9791 43.0463 16.8029 42.3796 16.596C41.713 16.3814 41.0999 16.1132 40.5405 15.7913C39.9887 15.4695 39.5366 14.9982 39.1841 14.3775C38.8393 13.7568 38.6668 13.0058 38.6668 12.1245C38.6668 10.7605 39.1879 9.65698 40.2301 8.81404C41.28 7.96342 42.6823 7.53812 44.4372 7.53812C46.0541 7.53812 47.3645 7.91745 48.3684 8.6761C49.3723 9.42709 50.0236 10.4616 50.3225 11.7797H47.8511C47.3147 10.4463 46.1767 9.77576 44.4372 9.7681C43.418 9.7681 42.6134 9.99416 42.0233 10.4463C41.4332 10.8908 41.1382 11.4502 41.1382 12.1245C41.1382 12.6763 41.3145 13.1361 41.667 13.5039C42.0271 13.8717 42.4831 14.1553 43.0348 14.3545C43.5943 14.5461 44.215 14.7223 44.897 14.8833C45.579 15.0365 46.2572 15.2204 46.9316 15.435C47.6059 15.6496 48.2228 15.9101 48.7822 16.2166C49.3416 16.5232 49.7976 16.9676 50.1501 17.55C50.5026 18.1248 50.6788 18.8298 50.6788 19.6651C50.6788 21.0138 50.1194 22.1556 49.0006 23.0905C47.8895 24.0177 46.3683 24.4814 44.4372 24.4814ZM57.0304 24.4814C55.4441 24.4814 54.1644 23.9181 53.1911 22.7916C52.2179 21.6651 51.7313 20.075 51.7313 18.0213C51.7313 15.9599 52.2179 14.366 53.1911 13.2395C54.1644 12.1054 55.4441 11.5383 57.0304 11.5383C58.6473 11.5383 59.9424 12.1667 60.9156 13.4234H61.0305L61.3869 11.7797H63.1456V24.2515H61.3869L61.0305 22.6077H60.9156C59.9424 23.8568 58.6473 24.4814 57.0304 24.4814ZM57.3752 22.3663C58.4251 22.3663 59.2757 21.9947 59.927 21.2513C60.5861 20.508 60.9156 19.4313 60.9156 18.0213C60.9156 16.6036 60.5899 15.5231 59.9385 14.7798C59.2872 14.0288 58.4327 13.6533 57.3752 13.6533C56.3407 13.6533 55.5131 14.025 54.8924 14.7683C54.2716 15.504 53.9613 16.5883 53.9613 18.0213C53.9613 19.4467 54.2716 20.5272 54.8924 21.2628C55.5131 21.9985 56.3407 22.3663 57.3752 22.3663ZM65.4969 24.2515V11.7797H67.2671L67.612 13.4234H67.7384C68.5047 12.1667 69.681 11.5383 71.2673 11.5383C72.6313 11.5383 73.7348 12.0019 74.5778 12.9292C75.4284 13.8564 75.8537 15.0787 75.8537 16.596V24.2515H73.6237V16.7224C73.6237 15.7492 73.3632 14.9944 72.8421 14.458C72.3286 13.9215 71.6466 13.6533 70.796 13.6533C69.9301 13.6533 69.2021 13.956 68.612 14.5614C68.0296 15.1668 67.7384 15.8871 67.7384 16.7224V24.2515H65.4969ZM83.1593 22.3663C84.2091 22.3663 85.0598 21.9947 85.7111 21.2513C86.3702 20.508 86.6997 19.4313 86.6997 18.0213C86.6997 16.6036 86.374 15.5231 85.7226 14.7798C85.0712 14.0288 84.2168 13.6533 83.1593 13.6533C82.1248 13.6533 81.2971 14.025 80.6764 14.7683C80.0557 15.504 79.7454 16.5883 79.7454 18.0213C79.7454 19.4467 80.0557 20.5272 80.6764 21.2628C81.2971 21.9985 82.1248 22.3663 83.1593 22.3663ZM82.8144 24.4814C81.2282 24.4814 79.9484 23.9181 78.9752 22.7916C78.002 21.6651 77.5154 20.0712 77.5154 18.0098C77.5154 15.9408 78.0096 14.3468 78.9982 13.228C79.9867 12.1015 81.2971 11.5383 82.9294 11.5383C84.485 11.5383 85.6996 12.1284 86.5732 13.3085H86.6997V7.76801H88.9296V24.2515H87.171L86.8146 22.6077H86.6997C85.7264 23.8568 84.4314 24.4814 82.8144 24.4814ZM93.511 24.2515L89.9821 11.7797H92.2236L94.9248 21.3088H95.0513L97.5227 11.7797H99.994L102.465 21.3088H102.58L105.282 11.7797H107.523L103.994 24.2515H101.281L98.8101 15.1936H98.6951L96.2237 24.2515H93.511ZM112.944 24.4814C111.357 24.4814 110.078 23.9181 109.104 22.7916C108.131 21.6651 107.644 20.075 107.644 18.0213C107.644 15.9599 108.131 14.366 109.104 13.2395C110.078 12.1054 111.357 11.5383 112.944 11.5383C114.56 11.5383 115.856 12.1667 116.829 13.4234H116.944L117.3 11.7797H119.059V24.2515H117.3L116.944 22.6077H116.829C115.856 23.8568 114.56 24.4814 112.944 24.4814ZM113.288 22.3663C114.338 22.3663 115.189 21.9947 115.84 21.2513C116.499 20.508 116.829 19.4313 116.829 18.0213C116.829 16.6036 116.503 15.5231 115.852 14.7798C115.2 14.0288 114.346 13.6533 113.288 13.6533C112.254 13.6533 111.426 14.025 110.806 14.7683C110.185 15.504 109.874 16.5883 109.874 18.0213C109.874 19.4467 110.185 20.5272 110.806 21.2628C111.426 21.9985 112.254 22.3663 113.288 22.3663ZM125.652 24.2515C124.663 24.2515 123.866 23.9449 123.261 23.3319C122.655 22.7188 122.353 21.9257 122.353 20.9525V13.8947H120.353V11.7797H122.353L122.709 8.48069H124.594V11.7797H127.652V13.8947H124.594V20.7226C124.594 21.1441 124.705 21.4851 124.927 21.7456C125.157 22.0062 125.475 22.1364 125.882 22.1364H127.652V24.2515H125.652ZM134.486 24.4814C132.701 24.4814 131.271 23.9105 130.199 22.7686C129.133 21.6192 128.601 20.0329 128.601 18.0098C128.601 15.9868 129.133 14.4043 130.199 13.2625C131.264 12.113 132.693 11.5383 134.486 11.5383C135.804 11.5383 136.927 11.8793 137.854 12.5613C138.781 13.2433 139.425 14.1591 139.785 15.3086H137.429C136.816 14.2127 135.835 13.661 134.486 13.6533C133.406 13.6533 132.524 14.0365 131.842 14.8028C131.168 15.5614 130.831 16.6343 130.831 18.0213C130.831 19.4007 131.168 20.4697 131.842 21.2283C132.524 21.987 133.406 22.3663 134.486 22.3663C135.835 22.3663 136.816 21.8184 137.429 20.7226H139.785C139.425 21.8721 138.781 22.7878 137.854 23.4698C136.927 24.1442 135.804 24.4814 134.486 24.4814ZM141.539 24.2515V7.76801H143.78V13.3085H143.895C144.24 12.7414 144.719 12.3046 145.332 11.9981C145.945 11.6916 146.604 11.5383 147.309 11.5383C148.673 11.5383 149.777 12.0019 150.62 12.9292C151.47 13.8564 151.896 15.0787 151.896 16.596V24.2515H149.666V16.7224C149.666 15.7492 149.405 14.9944 148.884 14.458C148.37 13.9215 147.688 13.6533 146.838 13.6533C145.972 13.6533 145.244 13.956 144.654 14.5614C144.071 15.1668 143.78 15.8871 143.78 16.7224V24.2515H141.539Z" fill="white"/>
<path fill-rule="evenodd" clip-rule="evenodd" d="M10.8557 30.27C12.2196 31.6988 14.3886 32.1828 16.2884 31.3193L25.2633 27.2396C28.0229 25.9853 29.2428 22.7316 27.9885 19.9722L26.3063 16.2712L26.5841 16.1449C28.9857 15.0532 30.0477 12.2213 28.956 9.8195C28.2902 8.35491 26.9773 7.38855 25.5095 7.10498C25.8698 7.48241 26.1739 7.92578 26.4021 8.42764C27.4938 10.8294 26.4318 13.6614 24.0302 14.7531L23.7524 14.8793L25.4346 18.5803C26.6889 21.3398 25.469 24.5934 22.7094 25.8478L13.7345 29.9274C12.7974 30.3534 11.7949 30.4514 10.8557 30.27Z" fill="white"/>
<path d="M6.58542 18.9769L4.9032 15.2758C3.64889 12.5164 4.86874 9.26275 7.62839 8.0084L16.4184 4.01286C18.8199 2.92117 21.6519 3.98309 22.7436 6.38477C23.8353 8.78655 22.7733 11.6185 20.3717 12.7102L20.0939 12.8364L21.7761 16.5374C23.0304 19.2969 21.8106 22.5505 19.0509 23.8049L10.076 27.8845C7.6744 28.9762 4.84247 27.9143 3.75074 25.5125C2.65903 23.1108 3.72105 20.2789 6.12263 19.1872L6.58542 18.9769Z" stroke="white" stroke-width="2.41733"/>
</svg>
