<svg width="22" height="17" viewBox="0 0 22 17" fill="none" xmlns="http://www.w3.org/2000/svg">
<g clip-path="url(#clip0_427_7175)">
<path d="M4.26342 12.4026C4.38701 12.2791 4.55456 12.2097 4.72927 12.2097H20.8488C21.1425 12.2097 21.2895 12.5648 21.0817 12.7723L17.8965 15.955C17.773 16.0785 17.6054 16.1479 17.4307 16.1479H1.31115C1.01751 16.1479 0.870506 15.7928 1.07823 15.5852L4.26342 12.4026Z" fill="white"/>
<path d="M4.26342 0.512188C4.38701 0.388702 4.55456 0.319336 4.72927 0.319336H20.8488C21.1425 0.319336 21.2895 0.674423 21.0817 0.88198L17.8965 4.06464C17.773 4.18812 17.6054 4.25749 17.4307 4.25749H1.31115C1.01751 4.25749 0.870506 3.9024 1.07823 3.69484L4.26342 0.512188Z" fill="white"/>
<path d="M17.8965 6.41944C17.773 6.29596 17.6054 6.22656 17.4307 6.22656H1.31115C1.01751 6.22656 0.870506 6.58165 1.07823 6.78923L4.26342 9.97188C4.38701 10.0954 4.55456 10.1647 4.72927 10.1647H20.8488C21.1425 10.1647 21.2895 9.80963 21.0817 9.60208L17.8965 6.41944Z" fill="white"/>
</g>
<defs>
<clipPath id="clip0_427_7175">
<rect width="20.2046" height="15.8308" fill="white" transform="translate(0.980957 0.319336)"/>
</clipPath>
</defs>
</svg>
