<svg width="34" height="35" viewBox="0 0 34 35" fill="none" xmlns="http://www.w3.org/2000/svg">
<path fill-rule="evenodd" clip-rule="evenodd" d="M4.9494 15.2396C12.6177 11.803 17.731 9.53742 20.2895 8.44278C27.5945 5.31738 29.1124 4.77447 30.1018 4.75654C30.3194 4.7526 30.8059 4.80807 31.1211 5.07112C31.3872 5.29323 31.4604 5.59328 31.4954 5.80387C31.5305 6.01446 31.5741 6.49419 31.5394 6.86904C31.1436 11.1475 29.4307 21.5301 28.5593 26.322C28.1905 28.3497 27.4645 29.0295 26.7616 29.0961C25.2341 29.2407 24.0741 28.0576 22.5946 27.06C20.2795 25.499 18.9716 24.5272 16.7244 23.0039C14.1273 21.2435 15.8109 20.276 17.2909 18.6947C17.6783 18.2809 24.4087 11.9838 24.5389 11.4125C24.5552 11.3411 24.5703 11.0748 24.4165 10.9341C24.2627 10.7935 24.0357 10.8416 23.8719 10.8799C23.6397 10.9341 19.9413 13.4486 12.7766 18.4234C11.7268 19.165 10.7759 19.5262 9.92398 19.5073C8.98478 19.4864 7.17813 18.9611 5.83507 18.512C4.18776 17.9612 2.87851 17.67 2.99252 16.7345C3.0519 16.2473 3.70419 15.749 4.9494 15.2396Z" fill="#3BF93B"/>
</svg>
